# Blender 3.3.16
# www.blender.org
mtllib buzzlightyRightForearm.mtl
o buzzlightyLeftForearm_buzzlighty.001
v 0.287908 0.608249 0.034064
v 0.298621 0.620652 0.008307
v 0.271326 0.607385 0.011622
v 0.282468 0.607438 -0.013975
v 0.310190 0.608357 -0.017130
v 0.317472 0.555942 0.031599
v 0.301318 0.542726 0.009317
v 0.328613 0.555996 0.006002
v 0.315630 0.609168 0.030909
v 0.284310 0.554213 -0.013285
v 0.273168 0.554159 0.012312
v 0.312032 0.555131 -0.016440
v 0.289749 0.555024 0.034754
v 0.273168 0.554159 0.012312
v 0.259382 0.580344 0.013431
v 0.284310 0.554213 -0.013285
v 0.275693 0.580423 -0.024045
v 0.289749 0.555024 0.034754
v 0.283658 0.581610 0.046288
v 0.317472 0.555942 0.031599
v 0.324246 0.582955 0.041670
v 0.328613 0.555996 0.006002
v 0.340558 0.583034 0.004193
v 0.312032 0.555131 -0.016440
v 0.316282 0.581768 -0.028664
v 0.326771 0.609221 0.005312
v 0.328613 0.555996 0.006002
v 0.340558 0.583034 0.004193
v 0.287908 0.608249 0.034064
v 0.271326 0.607385 0.011622
v 0.315630 0.609168 0.030909
v 0.326771 0.609221 0.005312
v 0.310190 0.608357 -0.017130
v 0.326771 0.609221 0.005312
v 0.282468 0.607438 -0.013975
v 0.329322 0.606738 -0.013494
v 0.330067 0.582292 0.030491
v 0.320057 0.616045 0.004651
v 0.307204 0.540290 0.043814
v 0.403955 0.568576 0.077423
v 0.324674 0.563153 0.069961
v 0.393962 0.581538 0.087693
v 0.303341 0.621398 0.042817
v 0.401483 0.610249 0.077606
v 0.319762 0.629574 0.001341
v 0.334443 0.587070 0.080972
v 0.330476 0.536851 -0.010957
v 0.342772 0.563013 -0.032687
v 0.419091 0.571737 0.060124
v 0.426231 0.585678 0.051891
v 0.329322 0.606738 -0.013494
v 0.333236 0.617690 -0.023376
v 0.337729 0.589674 -0.023796
v 0.343805 0.592690 -0.036780
v 0.316147 0.566104 0.059193
v 0.324674 0.563153 0.069961
v 0.320844 0.585606 0.065178
v 0.334443 0.587070 0.080972
v 0.319762 0.629574 0.001341
v 0.320057 0.616045 0.004651
v 0.333236 0.617690 -0.023376
v 0.422508 0.606146 0.056258
v 0.343805 0.592690 -0.036780
v 0.319105 0.607416 0.064914
v 0.303341 0.621398 0.042817
v 0.312643 0.603441 0.055754
v 0.304334 0.615518 0.038932
v 0.306801 0.549356 0.034905
v 0.326571 0.550375 -0.003306
v 0.307204 0.540290 0.043814
v 0.330476 0.536851 -0.010957
v 0.426231 0.585678 0.051891
v 0.395470 0.603347 0.085508
v 0.419091 0.571737 0.060124
v 0.393962 0.581538 0.087693
v 0.426231 0.585678 0.051891
v 0.422508 0.606146 0.056258
v 0.395470 0.603347 0.085508
v 0.401483 0.610249 0.077606
v 0.337729 0.589674 -0.023796
v 0.393962 0.581538 0.087693
v 0.395470 0.603347 0.085508
v 0.334443 0.587070 0.080972
v 0.319105 0.607416 0.064914
v 0.342772 0.563013 -0.032687
v 0.336789 0.568869 -0.020561
v 0.336789 0.568869 -0.020561
v 0.326571 0.550375 -0.003306
v 0.330067 0.582292 0.030491
v 0.304334 0.615518 0.038932
v 0.320057 0.616045 0.004651
v 0.320844 0.585606 0.065178
v 0.312643 0.603441 0.055754
v 0.330067 0.582292 0.030491
v 0.316147 0.566104 0.059193
v 0.306801 0.549356 0.034905
v 0.304334 0.615518 0.038932
v 0.393962 0.581538 0.087693
v 0.403955 0.568576 0.077423
v 0.419091 0.571737 0.060124
v 0.306801 0.549356 0.034905
v 0.259382 0.580344 0.013431
v 0.284310 0.554213 -0.013285
v 0.275693 0.580423 -0.024045
v 0.271326 0.607385 0.011622
v 0.282468 0.607438 -0.013975
vn -0.7787 -0.5103 -0.3650
vn 0.7470 0.0507 0.6629
vn -0.1932 0.9130 0.3593
vn -0.0346 0.9993 -0.0130
vn -0.4336 0.9005 0.0339
vn 0.2088 0.9263 0.3135
vn -0.2720 0.9012 -0.3373
vn 0.3703 0.9271 -0.0576
vn 0.1299 0.9146 -0.3830
vn 0.2721 -0.9012 0.3373
vn 0.0346 -0.9993 0.0130
vn 0.4337 -0.9004 -0.0339
vn -0.1300 -0.9145 0.3831
vn 0.1932 -0.9130 -0.3594
vn -0.3704 -0.9271 0.0576
vn -0.2088 -0.9263 -0.3136
vn -0.8779 -0.4668 0.1073
vn -0.9798 0.0405 0.1961
vn -0.3275 -0.4490 -0.8314
vn -0.3991 -0.0019 0.9169
vn -0.3438 -0.4389 0.8302
vn -0.3055 0.0714 -0.9495
vn 0.3740 -0.4355 -0.8188
vn -0.3740 0.4354 0.8189
vn 0.5939 0.0310 0.8039
vn 0.3991 0.0019 -0.9169
vn -0.8870 0.4064 0.2192
vn 0.5492 -0.4093 0.7285
vn 0.7541 -0.3695 -0.5429
vn 0.9163 0.0369 0.3989
vn 0.5190 0.4650 0.7172
vn 0.8038 0.0201 -0.5946
vn 0.8578 -0.3540 0.3726
vn -0.1171 0.3725 -0.9206
vn 0.8310 0.4220 0.3626
vn 0.3437 0.4389 -0.8302
vn 0.7273 0.4065 -0.5530
vn -0.9036 -0.3808 -0.1963
vn -0.9488 0.1360 -0.2851
vn -0.8737 -0.4313 -0.2249
vn -0.9753 -0.1540 -0.1586
vn -0.9745 0.1494 -0.1676
vn -0.8778 0.3902 -0.2777
vn -0.7764 0.4964 -0.3884
vn 0.1745 -0.9306 0.3217
vn 0.1540 -0.9120 0.3803
vn -0.0478 -0.6519 0.7568
vn 0.5034 -0.8322 -0.2326
vn -0.0485 -0.5926 0.8040
vn -0.1380 -0.3671 0.9199
vn 0.4767 -0.8622 -0.1712
vn 0.6991 -0.4088 -0.5867
vn 0.7569 -0.1720 -0.6305
vn 0.7034 0.2293 -0.6728
vn 0.5561 0.7274 -0.4020
vn 0.4889 0.7540 -0.4387
vn 0.2147 0.9757 -0.0435
vn 0.0599 0.9543 0.2929
vn -0.0105 0.9432 0.3320
vn -0.1416 0.7333 0.6650
vn -0.1306 0.5534 0.8226
vn -0.1858 0.4540 0.8714
vn -0.1018 0.1061 0.9891
vn -0.8809 -0.1110 -0.4600
vn -0.8812 -0.1096 -0.4598
vn -0.8920 -0.0818 -0.4445
vn -0.9084 -0.1094 -0.4035
vn -0.8954 -0.0809 -0.4378
vn -0.9122 -0.1071 -0.3954
vn -0.8961 0.0046 -0.4437
vn -0.9925 -0.1223 0.0070
vn -0.8933 0.0056 -0.4494
vn -0.9872 -0.0730 -0.1418
vn -0.8970 -0.0022 -0.4421
vn -0.8276 -0.0507 0.5590
vn -0.8981 -0.0342 -0.4384
vn -0.7949 -0.0413 0.6053
vn -0.9975 -0.0442 0.0543
vn -0.7675 -0.0245 0.6405
vn -0.9551 -0.2282 -0.1890
vn -0.7568 -0.0190 0.6534
vn -0.8164 -0.0245 0.5770
vn -0.7798 -0.0240 0.6255
vn 0.7418 0.0160 0.6704
vn 0.7418 0.0159 0.6705
vn 0.7348 -0.0110 0.6782
vn 0.7340 0.0060 0.6791
vn 0.7283 0.0788 0.6807
vn 0.7187 0.1510 0.6788
vn -0.9630 -0.1109 -0.2455
vn -0.8247 -0.5560 -0.1034
vn -0.9867 0.0109 -0.1620
vn -0.8790 0.4431 -0.1764
vn -0.7950 -0.6051 -0.0417
vn -0.8192 0.5684 -0.0767
vn -0.8309 -0.4220 -0.3625
vn -0.9015 -0.1819 -0.3927
vn -0.8578 0.3540 -0.3726
vt 0.430372 0.903921
vt 0.470498 0.904489
vt 0.450886 0.939763
vt 0.491257 0.940559
vt 0.510624 0.905058
vt 0.510781 0.904652
vt 0.470498 0.904498
vt 0.490662 0.939663
vt 0.449875 0.939092
vt 0.430215 0.904345
vt 0.450470 0.940006
vt 0.450311 0.939183
vt 0.490822 0.940486
vt 0.555310 0.717669
vt 0.555309 0.677471
vt 0.569412 0.717669
vt 0.569412 0.677471
vt 0.541166 0.717669
vt 0.541166 0.677471
vt 0.526887 0.717669
vt 0.526887 0.677471
vt 0.515846 0.717669
vt 0.515846 0.677471
vt 0.583608 0.717669
vt 0.583608 0.677471
vt 0.490246 0.939887
vt 0.598093 0.717669
vt 0.598093 0.677471
vt 0.541166 0.717669
vt 0.555304 0.717669
vt 0.526887 0.717669
vt 0.515846 0.717669
vt 0.583608 0.717669
vt 0.598093 0.717669
vt 0.569412 0.717669
vt 0.414226 0.386070
vt 0.401799 0.369376
vt 0.405004 0.391549
vt 0.479396 0.113715
vt 0.496649 0.282634
vt 0.474933 0.113715
vt 0.487634 0.241643
vt 0.553501 0.113715
vt 0.530040 0.292533
vt 0.544448 0.113715
vt 0.469562 0.113715
vt 0.496257 0.113715
vt 0.508561 0.113715
vt 0.503880 0.297522
vt 0.511854 0.300810
vt 0.431856 0.391966
vt 0.432585 0.392814
vt 0.432745 0.390633
vt 0.433728 0.390864
vt 0.428272 0.388747
vt 0.427881 0.388468
vt 0.428059 0.390226
vt 0.427521 0.390259
vt 0.430657 0.393742
vt 0.430461 0.392690
vt 0.533568 0.113715
vt 0.521634 0.305255
vt 0.522356 0.113715
vt 0.428025 0.391917
vt 0.428884 0.393096
vt 0.428381 0.391651
vt 0.429150 0.392645
vt 0.429459 0.387762
vt 0.431136 0.387836
vt 0.428925 0.387060
vt 0.431722 0.386805
vt 0.441494 0.697381
vt 0.451256 0.711858
vt 0.448012 0.694872
vt 0.456702 0.705198
vt 0.441494 0.697381
vt 0.438737 0.706318
vt 0.451256 0.711858
vt 0.445122 0.712692
vt 0.420427 0.374792
vt 0.539211 0.240462
vt 0.535832 0.263705
vt 0.559349 0.113715
vt 0.556538 0.113715
vt 0.433439 0.388569
vt 0.432513 0.389024
vt 0.418361 0.361182
vt 0.407803 0.353286
vt 0.401799 0.369376
vt 0.393311 0.391164
vt 0.405004 0.391549
vt 0.379917 0.372421
vt 0.382794 0.384479
vt 0.401799 0.369376
vt 0.382254 0.358843
vt 0.392840 0.352656
vt 0.393311 0.391164
vt 0.456702 0.705198
vt 0.454088 0.697613
vt 0.448012 0.694872
vt 0.392840 0.352656
vt 0.555309 0.677471
vt 0.569412 0.717669
vt 0.569412 0.677471
vt 0.555304 0.717669
vt 0.569412 0.717669
s 1
usemtl Material.009
f 89/89/1 90/90/1 91/91/1
f 98/98/2 99/99/2 100/100/2
f 1/1/3 2/2/4 3/3/5
f 9/9/6 2/2/4 1/1/3
f 3/3/5 2/2/4 4/4/7
f 26/26/8 2/2/4 9/9/6
f 4/4/7 2/2/4 5/5/9
f 5/5/9 2/2/4 26/26/8
f 6/6/10 7/7/11 8/8/12
f 13/13/13 7/7/11 6/6/10
f 8/8/12 7/7/11 12/12/14
f 11/11/15 7/7/11 13/13/13
f 12/12/14 7/7/11 10/10/16
f 10/10/16 7/7/11 11/11/15
f 14/14/17 15/15/18 16/16/19
f 14/14/17 19/19/20 15/15/18
f 18/18/21 19/19/20 14/14/17
f 16/16/19 17/17/22 24/24/23
f 19/19/20 29/29/24 15/15/18
f 18/18/21 21/21/25 19/19/20
f 24/24/23 17/17/22 25/25/26
f 15/15/18 29/29/24 30/30/27
f 20/20/28 21/21/25 18/18/21
f 24/24/23 25/25/26 27/27/29
f 15/15/18 30/30/27 17/17/22
f 20/20/28 23/23/30 21/21/25
f 19/19/20 31/31/31 29/29/24
f 27/27/29 25/25/26 28/28/32
f 22/22/33 23/23/30 20/20/28
f 21/21/25 31/31/31 19/19/20
f 17/17/22 35/35/34 25/25/26
f 23/23/30 32/32/35 21/21/25
f 21/21/25 32/32/35 31/31/31
f 25/25/26 33/33/36 28/28/32
f 25/25/26 35/35/34 33/33/36
f 28/28/32 33/33/36 34/34/37
f 36/36/38 37/37/39 38/38/40
f 37/37/39 36/36/38 80/80/41
f 80/80/41 87/87/42 37/37/39
f 37/37/39 87/87/42 88/88/43
f 37/37/39 88/88/43 101/101/44
f 39/39/45 40/40/46 41/41/47
f 39/39/45 49/49/48 40/40/46
f 41/41/47 40/40/46 42/42/49
f 41/41/47 42/42/49 46/46/50
f 47/47/51 49/49/48 39/39/45
f 47/47/51 48/48/52 49/49/48
f 49/49/48 48/48/52 50/50/53
f 48/48/52 63/63/54 50/50/53
f 63/63/54 62/62/55 50/50/53
f 61/61/56 62/62/55 63/63/54
f 61/61/56 45/45/57 62/62/55
f 62/62/55 45/45/57 44/44/58
f 43/43/59 44/44/58 45/45/57
f 43/43/59 84/84/60 44/44/58
f 44/44/58 84/84/60 82/82/61
f 83/83/62 82/82/61 84/84/60
f 81/81/63 82/82/61 83/83/62
f 51/51/64 52/52/65 53/53/66
f 52/52/65 51/51/64 59/59/67
f 53/53/66 52/52/65 54/54/68
f 59/59/67 51/51/64 60/60/69
f 54/54/68 85/85/70 53/53/66
f 60/60/69 65/65/71 59/59/67
f 53/53/66 85/85/70 86/86/72
f 67/67/73 65/65/71 60/60/69
f 85/85/70 71/71/74 86/86/72
f 66/66/75 65/65/71 67/67/73
f 86/86/72 71/71/74 69/69/76
f 64/64/77 65/65/71 66/66/75
f 70/70/78 69/69/76 71/71/74
f 57/57/79 64/64/77 66/66/75
f 68/68/80 69/69/76 70/70/78
f 58/58/81 64/64/77 57/57/79
f 70/70/78 55/55/82 68/68/80
f 57/57/79 56/56/83 58/58/81
f 56/56/83 55/55/82 70/70/78
f 55/55/82 56/56/83 57/57/79
f 72/72/84 73/73/85 74/74/84
f 74/74/84 73/73/85 75/75/85
f 76/76/86 77/77/87 78/78/88
f 78/78/88 77/77/87 79/79/89
f 92/92/90 93/93/91 94/94/92
f 94/94/92 95/95/93 92/92/90
f 94/94/92 93/93/91 97/97/94
f 95/95/93 94/94/92 96/96/95
f 103/103/96 102/102/96 104/104/97
f 104/104/97 105/105/98 106/106/98
